/* XPM */
static char *image[] = {
"64 64 196 2",
"   c None",
"00 c #2cbaff",
"10 c #5dcaff",
"20 c #2ebbff",
"30 c #c4ecff",
"40 c #d0f0ff",
"50 c #b7e8ff",
"60 c #60cbff",
"70 c #91dbff",
"80 c #72d1ff",
"90 c #89d9ff",
":0 c #9ddfff",
";0 c #85d7ff",
"A0 c #5ecbff",
"B0 c #bdeaff",
"C0 c #e3f6ff",
"D0 c #b4e7ff",
"E0 c #b8e8ff",
"F0 c #54c7ff",
"G0 c #43c2ff",
"H0 c #23b7ff",
"I0 c #39bfff",
"J0 c #56c8ff",
"K0 c #dcf4ff",
"L0 c #9cdfff",
"M0 c #3fc1ff",
"N0 c #d4f1ff",
"O0 c #5ac9ff",
"P0 c #e2f6ff",
"Q0 c #09afff",
"R0 c #ebf8ff",
"S0 c #c8edff",
"T0 c #84d7ff",
"U0 c #14b3ff",
"V0 c #67ceff",
"W0 c #11b2ff",
"X0 c #a6e2ff",
"Y0 c #3abfff",
"Z0 c #4ac4ff",
"a0 c #05aeff",
"b0 c #ceefff",
"c0 c #cbeeff",
"d0 c #30bcff",
"e0 c #c6ecff",
"f0 c #7fd5ff",
"g0 c #8edaff",
"h0 c #eaf8ff",
"i0 c #74d2ff",
"j0 c #6dcfff",
"k0 c #68ceff",
"l0 c #8cdaff",
"m0 c #7ad4ff",
"n0 c #61ccff",
"o0 c #fbfeff",
"p0 c #c3ebff",
"q0 c #7bd4ff",
"r0 c #6fd0ff",
"s0 c #93dcff",
"t0 c #6ed0ff",
"u0 c #36beff",
"v0 c #8ddaff",
"w0 c #c1ebff",
"x0 c #65cdff",
"y0 c #5fcbff",
"z0 c #e4f6ff",
"01 c #8fdbff",
"11 c #6bcfff",
"21 c #34bdff",
"31 c #4fc6ff",
"41 c #dff5ff",
"51 c #98ddff",
"61 c #b1e6ff",
"71 c #2abaff",
"81 c #48c3ff",
"91 c #75d2ff",
":1 c #a1e0ff",
";1 c #a5e2ff",
"A1 c #b9e8ff",
"B1 c #3dc0ff",
"C1 c #9fe0ff",
"D1 c #73d1ff",
"E1 c #f8fdff",
"F1 c #17b3ff",
"G1 c #fdfeff",
"H1 c #f3fbff",
"I1 c #f9fdff",
"J1 c #ddf4ff",
"K1 c #bbe9ff",
"L1 c #1db5ff",
"M1 c #bce9ff",
"N1 c #19b4ff",
"O1 c #e5f7ff",
"P1 c #b6e7ff",
"Q1 c #edf9ff",
"R1 c #16b3ff",
"S1 c #31bcff",
"T1 c #f5fcff",
"U1 c #69ceff",
"V1 c #0fb1ff",
"W1 c #d8f2ff",
"X1 c #5bcaff",
"Y1 c #27b9ff",
"Z1 c #9adeff",
"a1 c #d3f1ff",
"b1 c #52c7ff",
"c1 c #50c6ff",
"d1 c #0db0ff",
"e1 c #46c3ff",
"f1 c #25b8ff",
"g1 c #fcfeff",
"h1 c #7ed5ff",
"i1 c #b5e7ff",
"j1 c #22b7ff",
"k1 c #d9f3ff",
"l1 c #afe5ff",
"m1 c #ecf9ff",
"n1 c #4ec5ff",
"o1 c #1eb6ff",
"p1 c #1ab4ff",
"q1 c #18b4ff",
"r1 c #c7edff",
"s1 c #5ccaff",
"t1 c #8ad9ff",
"u1 c #cfefff",
"v1 c #1cb5ff",
"w1 c #20b6ff",
"x1 c #d6f2ff",
"y1 c #87d8ff",
"z1 c #e7f7ff",
"02 c #41c1ff",
"12 c #47c3ff",
"22 c #e6f7ff",
"32 c #abe4ff",
"42 c #03adff",
"52 c #a0e0ff",
"62 c #94dcff",
"72 c #10b1ff",
"82 c #9bdeff",
"92 c #feffff",
":2 c #01acff",
";2 c #83d7ff",
"A2 c #eef9ff",
"B2 c #15b3ff",
"C2 c #12b2ff",
"D2 c #80d6ff",
"E2 c #effaff",
"F2 c #92dcff",
"G2 c #02adff",
"H2 c #f7fcff",
"I2 c #9edfff",
"J2 c #4bc4ff",
"K2 c #08afff",
"L2 c #07aeff",
"M2 c #a3e1ff",
"N2 c #f2fbff",
"O2 c #f0faff",
"P2 c #58c9ff",
"Q2 c #f4fbff",
"R2 c #c2ebff",
"S2 c #97ddff",
"T2 c #57c8ff",
"U2 c #66cdff",
"V2 c #77d3ff",
"W2 c #99deff",
"X2 c #caeeff",
"Y2 c #beeaff",
"Z2 c #21b7ff",
"a2 c #def4ff",
"b2 c #d5f1ff",
"c2 c #4dc5ff",
"d2 c #59c9ff",
"e2 c #c9edff",
"f2 c #bfeaff",
"g2 c #55c8ff",
"h2 c #04adff",
"i2 c #26b8ff",
"j2 c #7cd4ff",
"k2 c #f6fcff",
"l2 c #ffffff",
"m2 c #fafdff",
"n2 c #c0eaff",
"o2 c #78d3ff",
"p2 c #29b9ff",
"q2 c #2dbbff",
"r2 c #51c6ff",
"s2 c #71d1ff",
"t2 c #7dd5ff",
"u2 c #88d8ff",
"v2 c #79d3ff",
"w2 c #70d0ff",
"x2 c #53c7ff",
"y2 c #2bbaff",
"z2 c #06aeff",
"03 c #00abff",
"13 c #00acff",
"23 c #00adff",
"                                                      23131323131323131313                                                      ",
"                                            1313131313131313131313131313131313131313                                            ",
"                                        131313131313131313131313131313131313131313131313                                        ",
"                                  132313131313131313131313131313131313131313131313131313132303                                  ",
"                                1313131313131313131313131313131313131313131313131313131313131313                                ",
"                            131313131313131313131313131313131313131313131313131313131313131313131313                            ",
"                          13131313131313131313131313z2y2x2w2v2u2u2t2s2r2q2z213131313131313131313131313                          ",
"                      031313131313131313131313p2o2n2m2l2l2l2l2l2l2l2l2l2l2k2n2j2i2131313131313131313131313                      ",
"                    13131313131313131313h2g2f2l2l2l2l2l2l2l2l2l2l2l2l2l2l2l2l2l2l2e2d2h213131313131313131313                    ",
"                  13131313131313131313c2b2l2l2l2l2l2l2l2l2l2l2l2l2l2l2l2l2l2l2l2l2l2l2a2g213131313131313131303                  ",
"                231313131313131313Z2Y2l2l2l2l2l2l2l2k2X2W2V2U2T2g2U2s2S2R2Q2l2l2l2l2l2l2l2Y2Z2131313131313131313                ",
"              031313131313131313P2O2l2l2l2l2l2N2M2c2L213131313131313131313K2J2I2H2l2l2l2l2l2O2T2131313131313131313              ",
"              13131313131313G2F2l2l2l2l2l2E2D2C213131313131313131313131313131313B2t2A2l2l2l2l2l2;2:213131313131313              ",
"            13131313131313h2M2l2l2l2l29282721313131313131313131313131313131313131313C26292l2l2l2l2524213131313131313            ",
"          13131313131313G232l2l2l2l2221213131313131313131313131313131313131313131313131302z1l2l2l2l2I2:213131313131313          ",
"          13131313131313y1l2l2l2l2x1w11313131313131313131313131313131313131313131313131313v1u1l2l2l2l2t113131313131313          ",
"        23131313131313s1l2l2l2l2r1C21313131313131313131313131313131313131313131313131313q1p172r1l2l2l2l2s113131313131313        ",
"      23131313131313o1N2l2l2l2x1C21313131313131313131313131313131313131313131313131313n1m1l113C2k1l2l2l2Q2j1131313131313        ",
"      23131313131313i1l2l2l222w113131313131313131313131313131313131313131313131313:2h192l2g1B213f1m1l2l2l2Y2:2131313131313      ",
"      131313131313g2l2l2l292e113131313131313131313131313131313131313131313131313d1l1l2l2l2l2c1131312l2l2l2l2b1131313131313      ",
"    131313131313:2a1l2l2l2Z113131313131313131313131313131313131313131313131313Y1b2l2l2l2l2l2X1131313M2l2l2l2W142131313131313    ",
"    131313131313c1l2l2l2m1V11313131313131313131313131313131313131313131313:2U1T1l2l2l2l2l2l2S1131313R1Q1l2l2l2c1131313131313    ",
"  13131313131313R2l2l2l2v21313131313131313131313131313131313131313131313o1P1l2l2l2l2l2l2l2O1V2c2N11313D2l2l2l2M113131313131313  ",
"  131313131313L192l2l2T1V1131313131313131313131313131313131313:2T2K1u1J1I1l2l2l2l2l2l2l2l2H1G1l2J11313F1E1l2l292i2131313131313  ",
"  131313131313D1l2l2l2C1131313131313131313131313131313131313B1e2l2l2A1;192l2l2l2l2l2l2l2l2l2l2l2g1G21313:1l2l2l291131313131313  ",
"  131313131313R2l2l2l281131313131313131313131313131313137161l2l2l25142M1l2l2l2l2l2l2l2l2l2l2l2l24113131331l2l2l2f2131313131313  ",
"03131313131342Q2l2l2H1L21313131313131313131313211101A1z0l2l2l2l2l2J1E1l2l2l2l2l2l2l2l2l2l2l2l2l2y0131313d1m2l2l2I1z21313131313  ",
"231313131313q2l2l2l2f213131313131313131313d1M1l2l2l2l2l2l2l2l2l2l2l2l2l2l2l2l2l2l2l2l2l2l2l2E1x01313131313w0l2l2l271131313131323",
"231313131313s1l2l2l2v013131313131313131313Z2g1l2l2l2l2l2l2l2l2l2l2l2l2l2l2l2l2l2l2l2l2l2l222u013131313131382l2l2l2x2131313131313",
"131313131313t0l2l2l2911313131313131313131313s0l2l2l2l2l2l2l2l2l2l2l2l2l2l2l2l2l2l2l2l2l2H1S113131313131313;2l2l2l2r0131313131313",
"131313131313j2l2l2l2U21313131313131313131313z2K1l2l2l2l2l2l2l2l2l2l2l2l2l2l2l2l2l2l2l2l2y0131313131313131311l2l2l2q0131313131323",
"131313131313t1l2l2l2T2131313131313131313131313d1e2l2l2l2l2l2l2l2l2l2l2l2l2l2l2l2l2l2l2p0:21313131313131313s1l2l2l2y1131313131313",
"131313131313u2l2l2l2T2131313131313131313131313K2k1l2l2l2l2l2l2l2l2l2l2l2l2l2l2l2l2l2o0q2131313131313131313n0l2l2l2t1131313131313",
"131313131313m0l2l2l2x0131313131313131313131313s2l2l2l2l2l2l2l2l2l2l2l2l2l2l2l2l2l2l2l013131313131313131313k0l2l2l2D2131313131323",
"131313131313j0l2l2l2i01313131313131313131313d1h0l2l2l2l2l2l2l2l2l2l2l2l2l2l2l2l2l2A27213131313131313131313r0l2l2l2w2131313131313",
"231313131313X1l2l2l2g01313131313131313131313v2l2l2l2l2l2l2l2l2l2l2l2l2l2l2l2l2l2l2f01313131313131313131313s0l2l2l2x2131313131313",
"131313131313q2l2l2l2p013131313131313131313j1O2l2l2l2l2l2l2l2l2l2l2l2l2l2l2l2l2l2l2f11313131313131313131313e0l2l2l2d0131313131313",
"  1313131313h2k2l2l2Q2L21313131313131313z2c0l2l2l2l2l2l2l2l2l2l2l2l2l2l2l2l2l2l2b01313131313131313131313K2T1l2l2H2a01313131313  ",
"  131313131313e0l2l2l2Z01313131313131313y1l2l2l2l2l2l2l2l2l2l2l2l2l2l2l2l2l2l2l201131313131313131313131331l2l2l2p0131313131313  ",
"  131313131313o2l2l2l2I213131313131313Y0g1l2l2l2l2l2l2l2l2l2l2l2l2l2l2l2l2l2l2l2j01313131313131313131313X0l2l2l2q0131313131313  ",
"  131313131313w192l2l2Q2W01313131313:2X2l2l2l2l2l2l2l2l2l2l2l2l2l2l2l2l2l2l2l2l2V013131313131313131313U0Q2l2l2l271131313131313  ",
"  13131313131313e0l2l2l2o21313131313s1l2l2l2l2l2l2l2l2l2l2l2l2l2l2l2l2l2l2l2l2l2y013131313131313131313T0l2l2l2S013131313131313  ",
"    131313131313g2l2l2l2R0W0131313Q0P0l2l2l2l2l2l2l2l2l2l2l2l2l2l2l2l2l2l2l2l2l2c1131313131313131313W0O2l2l2l2O0131313131313    ",
"    131313131313G2N0l2l2l2F2131313F2l2l2l2l2l2l2l2l2l2l2l2l2l2l2l2l2l2l2l2l2l2l2M0131313131313131313L0l2l2l2K042131313131313    ",
"      131313131313J0l2l2l2g1I0W052l2l2l2l2l2l2l2l2l2l2l2l2l2l2l2l2l2l2l2l2l2l2l2H01313131313131313G092l2l2l2F0131313131313      ",
"      231313131313:2E0l2l2l2O2E2l2l2l2l2l2l2l2l2l2l2l2l2l2l2l2l2l2l2l2l2l2l2l2D01313131313131313L1C0l2l2l2B013131313131313      ",
"      13131313131313L1O2l2l2l2l2l2l2l2l2l2l2l2l2l2l2l2l2l2l2l2l2l2l2l2l2l2l2m1N113131313131313W0N0l2l2l2N2w1131313131313        ",
"        13131313131313A0l2l2l2l2l2l2l2l2l2l2l2l2l2l2l2l2l2l2l2l2l2l2l2l2l2l2v213131313131313C2S0l2l2l292O013131313131303        ",
"          13131313131313;0l2l2l2l2l2l2l2l2l2l2l2l2l2l2l2l2l2l2l2l2l2l2l2l2o0B2131313131313v1b2l2l2l2l2D213131313131313          ",
"          13131313131313:2I2l2l2l2l2l2l2l2l2l2l2l2l2l2l2l2l2l2l2l2l2l2l2l2e0131313131313G0z0l2l2l2l2:1:213131313131313          ",
"            13131313131313h2C1l2l2l2l2l2l2l2l2l2l2l2l2l2l2l2l2l2l2l2l2l2l28213131313C262G1l2l2l2l2:04213131313131313            ",
"              13131313131313:290l2l2l2l2l2l2l2l2l2l2l2l2l2l2l2l2l2l2l2l2l2801313W0v2m1l2l2l2l2l270:213131313131313              ",
"              13131313131313131360O2l2l2l2l2l2l2l2l2l2l2l2l2l2l2l2l2l2l2l2c1G0C1H1l2l2l2l2l2E2d2131313131313131303              ",
"                131313131313131313v150l2l2l2l2l2l2l2l2l2l2l2l2l2l2l2l2l2l2G1l2l2l2l2l2l2l2B0o1131313131313131313                ",
"                  13131313131313131313b140l2l2l2l2l2l2l2l2l2l2l2l2l2l2l2l2l2l2l2l2l2l240c213131313131313131313                  ",
"                    13131313131313131313:2r23092l2l2l2l2l2l2l2l2l2l2l2l2l2l2l2l2G1Y2J0G213131313131313131313                    ",
"                      131313131313131313131313L1D130k2l2l2l2l2l2l2l2l2l2l2H1w0i0v1131313131313131313131303                      ",
"                          23131313131313131313131313h220y0V2j2u2u2v2t010004213131313131313131313131313                          ",
"                            131313131313131313131313131313131313131313131313131313131313131313131313                            ",
"                                1313131313131313131313131313131313131313131313131313131313131313                                ",
"                                    13131313131313131313131313131313131313131313131313131313                                    ",
"                                        131313131313131313131313131313131313131313131313                                        ",
"                                            1313131313131313131313131313131313131313                                            ",
"                                                      13131313131313131323                                                      "};
